<?xml version="1.0" encoding="UTF-8" standalone="no"?>
<!DOCTYPE svg PUBLIC "-//W3C//DTD SVG 1.1//EN"
 "http://www.w3.org/Graphics/SVG/1.1/DTD/svg11.dtd">
<!-- Generated by graphviz version 2.42.3 (20191010.1750)
 -->
<!-- Title: snakemake_dag Pages: 1 -->
<svg width="1484pt" height="476pt"
 viewBox="0.00 0.00 1483.50 476.00" xmlns="http://www.w3.org/2000/svg" xmlns:xlink="http://www.w3.org/1999/xlink">
<g id="graph0" class="graph" transform="scale(1 1) rotate(0) translate(4 472)">
<title>snakemake_dag</title>
<polygon fill="white" stroke="transparent" points="-4,4 -4,-472 1479.5,-472 1479.5,4 -4,4"/>
<!-- 0 -->
<g id="node1" class="node">
<title>0</title>
<path fill="none" stroke="#56d88a" stroke-width="2" d="M826,-36C826,-36 796,-36 796,-36 790,-36 784,-30 784,-24 784,-24 784,-12 784,-12 784,-6 790,0 796,0 796,0 826,0 826,0 832,0 838,-6 838,-12 838,-12 838,-24 838,-24 838,-30 832,-36 826,-36"/>
<text text-anchor="middle" x="811" y="-15.5" font-family="sans" font-size="10.00">all</text>
</g>
<!-- 1 -->
<g id="node2" class="node">
<title>1</title>
<path fill="none" stroke="#d86e56" stroke-width="2" d="M939,-108C939,-108 885,-108 885,-108 879,-108 873,-102 873,-96 873,-96 873,-84 873,-84 873,-78 879,-72 885,-72 885,-72 939,-72 939,-72 945,-72 951,-78 951,-84 951,-84 951,-96 951,-96 951,-102 945,-108 939,-108"/>
<text text-anchor="middle" x="912" y="-87.5" font-family="sans" font-size="10.00">evalKraken2</text>
</g>
<!-- 1&#45;&gt;0 -->
<g id="edge1" class="edge">
<title>1&#45;&gt;0</title>
<path fill="none" stroke="grey" stroke-width="2" d="M887.29,-71.88C874.33,-62.89 858.27,-51.76 844.23,-42.03"/>
<polygon fill="grey" stroke="grey" stroke-width="2" points="846.02,-39.01 835.8,-36.19 842.03,-44.76 846.02,-39.01"/>
</g>
<!-- 2 -->
<g id="node3" class="node">
<title>2</title>
<path fill="none" stroke="#d8b456" stroke-width="2" d="M170.5,-108C170.5,-108 131.5,-108 131.5,-108 125.5,-108 119.5,-102 119.5,-96 119.5,-96 119.5,-84 119.5,-84 119.5,-78 125.5,-72 131.5,-72 131.5,-72 170.5,-72 170.5,-72 176.5,-72 182.5,-78 182.5,-84 182.5,-84 182.5,-96 182.5,-96 182.5,-102 176.5,-108 170.5,-108"/>
<text text-anchor="middle" x="151" y="-87.5" font-family="sans" font-size="10.00">evalkASA</text>
</g>
<!-- 2&#45;&gt;0 -->
<g id="edge2" class="edge">
<title>2&#45;&gt;0</title>
<path fill="none" stroke="grey" stroke-width="2" d="M182.72,-81.92C198.9,-78.51 218.92,-74.61 237,-72 438.5,-42.86 682.25,-26.56 773.84,-21.1"/>
<polygon fill="grey" stroke="grey" stroke-width="2" points="774.21,-24.58 783.99,-20.5 773.8,-17.6 774.21,-24.58"/>
</g>
<!-- 3 -->
<g id="node4" class="node">
<title>3</title>
<path fill="none" stroke="#56d87b" stroke-width="2" d="M327.5,-108C327.5,-108 258.5,-108 258.5,-108 252.5,-108 246.5,-102 246.5,-96 246.5,-96 246.5,-84 246.5,-84 246.5,-78 252.5,-72 258.5,-72 258.5,-72 327.5,-72 327.5,-72 333.5,-72 339.5,-78 339.5,-84 339.5,-84 339.5,-96 339.5,-96 339.5,-102 333.5,-108 327.5,-108"/>
<text text-anchor="middle" x="293" y="-87.5" font-family="sans" font-size="10.00">shrinkEvalkASA</text>
</g>
<!-- 3&#45;&gt;0 -->
<g id="edge3" class="edge">
<title>3&#45;&gt;0</title>
<path fill="none" stroke="grey" stroke-width="2" d="M339.65,-78.22C350.25,-75.98 361.48,-73.76 372,-72 520.06,-47.19 698.08,-29.36 773.89,-22.32"/>
<polygon fill="grey" stroke="grey" stroke-width="2" points="774.26,-25.8 783.9,-21.4 773.62,-18.83 774.26,-25.8"/>
</g>
<!-- 4 -->
<g id="node5" class="node">
<title>4</title>
<path fill="none" stroke="#d8bc56" stroke-width="2" d="M455,-108C455,-108 393,-108 393,-108 387,-108 381,-102 381,-96 381,-96 381,-84 381,-84 381,-78 387,-72 393,-72 393,-72 455,-72 455,-72 461,-72 467,-78 467,-84 467,-84 467,-96 467,-96 467,-102 461,-108 455,-108"/>
<text text-anchor="middle" x="424" y="-87.5" font-family="sans" font-size="10.00">evalkASA_128</text>
</g>
<!-- 4&#45;&gt;0 -->
<g id="edge4" class="edge">
<title>4&#45;&gt;0</title>
<path fill="none" stroke="grey" stroke-width="2" d="M467.22,-77.1C474.47,-75.28 481.93,-73.5 489,-72 591.2,-50.27 713.27,-32.34 773.53,-24.02"/>
<polygon fill="grey" stroke="grey" stroke-width="2" points="774.27,-27.45 783.7,-22.62 773.32,-20.51 774.27,-27.45"/>
</g>
<!-- 5 -->
<g id="node6" class="node">
<title>5</title>
<path fill="none" stroke="#56c1d8" stroke-width="2" d="M596.5,-108C596.5,-108 509.5,-108 509.5,-108 503.5,-108 497.5,-102 497.5,-96 497.5,-96 497.5,-84 497.5,-84 497.5,-78 503.5,-72 509.5,-72 509.5,-72 596.5,-72 596.5,-72 602.5,-72 608.5,-78 608.5,-84 608.5,-84 608.5,-96 608.5,-96 608.5,-102 602.5,-108 596.5,-108"/>
<text text-anchor="middle" x="553" y="-87.5" font-family="sans" font-size="10.00">evalkASA_alphabet</text>
</g>
<!-- 5&#45;&gt;0 -->
<g id="edge5" class="edge">
<title>5&#45;&gt;0</title>
<path fill="none" stroke="grey" stroke-width="2" d="M608.66,-73.9C658.72,-60.32 730.84,-40.75 774.09,-29.01"/>
<polygon fill="grey" stroke="grey" stroke-width="2" points="775.18,-32.35 783.91,-26.35 773.34,-25.59 775.18,-32.35"/>
</g>
<!-- 6 -->
<g id="node7" class="node">
<title>6</title>
<path fill="none" stroke="#d8cb56" stroke-width="2" d="M725,-108C725,-108 687,-108 687,-108 681,-108 675,-102 675,-96 675,-96 675,-84 675,-84 675,-78 681,-72 687,-72 687,-72 725,-72 725,-72 731,-72 737,-78 737,-84 737,-84 737,-96 737,-96 737,-102 731,-108 725,-108"/>
<text text-anchor="middle" x="706" y="-87.5" font-family="sans" font-size="10.00">evalclark</text>
</g>
<!-- 6&#45;&gt;0 -->
<g id="edge6" class="edge">
<title>6&#45;&gt;0</title>
<path fill="none" stroke="grey" stroke-width="2" d="M731.69,-71.88C745.29,-62.81 762.17,-51.55 776.86,-41.76"/>
<polygon fill="grey" stroke="grey" stroke-width="2" points="778.84,-44.65 785.22,-36.19 774.95,-38.82 778.84,-44.65"/>
</g>
<!-- 7 -->
<g id="node8" class="node">
<title>7</title>
<path fill="none" stroke="#d89556" stroke-width="2" d="M1044.5,-108C1044.5,-108 997.5,-108 997.5,-108 991.5,-108 985.5,-102 985.5,-96 985.5,-96 985.5,-84 985.5,-84 985.5,-78 991.5,-72 997.5,-72 997.5,-72 1044.5,-72 1044.5,-72 1050.5,-72 1056.5,-78 1056.5,-84 1056.5,-84 1056.5,-96 1056.5,-96 1056.5,-102 1050.5,-108 1044.5,-108"/>
<text text-anchor="middle" x="1021" y="-87.5" font-family="sans" font-size="10.00">evalkraken</text>
</g>
<!-- 7&#45;&gt;0 -->
<g id="edge7" class="edge">
<title>7&#45;&gt;0</title>
<path fill="none" stroke="grey" stroke-width="2" d="M985.38,-77.13C947.13,-64.38 886.67,-44.22 847.93,-31.31"/>
<polygon fill="grey" stroke="grey" stroke-width="2" points="848.69,-27.87 838.1,-28.03 846.48,-34.52 848.69,-27.87"/>
</g>
<!-- 8 -->
<g id="node9" class="node">
<title>8</title>
<path fill="none" stroke="#d88d56" stroke-width="2" d="M1170.5,-108C1170.5,-108 1105.5,-108 1105.5,-108 1099.5,-108 1093.5,-102 1093.5,-96 1093.5,-96 1093.5,-84 1093.5,-84 1093.5,-78 1099.5,-72 1105.5,-72 1105.5,-72 1170.5,-72 1170.5,-72 1176.5,-72 1182.5,-78 1182.5,-84 1182.5,-84 1182.5,-96 1182.5,-96 1182.5,-102 1176.5,-108 1170.5,-108"/>
<text text-anchor="middle" x="1138" y="-87.5" font-family="sans" font-size="10.00">evalCentrifuge</text>
</g>
<!-- 8&#45;&gt;0 -->
<g id="edge8" class="edge">
<title>8&#45;&gt;0</title>
<path fill="none" stroke="grey" stroke-width="2" d="M1093.49,-78.29C1084.4,-76.16 1074.9,-73.98 1066,-72 988.73,-54.85 897.9,-36.37 848.19,-26.4"/>
<polygon fill="grey" stroke="grey" stroke-width="2" points="848.72,-22.94 838.22,-24.41 847.34,-29.8 848.72,-22.94"/>
</g>
<!-- 9 -->
<g id="node10" class="node">
<title>9</title>
<path fill="none" stroke="#56b1d8" stroke-width="2" d="M1301,-108C1301,-108 1233,-108 1233,-108 1227,-108 1221,-102 1221,-96 1221,-96 1221,-84 1221,-84 1221,-78 1227,-72 1233,-72 1233,-72 1301,-72 1301,-72 1307,-72 1313,-78 1313,-84 1313,-84 1313,-96 1313,-96 1313,-102 1307,-108 1301,-108"/>
<text text-anchor="middle" x="1267" y="-87.5" font-family="sans" font-size="10.00">evalkrakenuniq</text>
</g>
<!-- 9&#45;&gt;0 -->
<g id="edge9" class="edge">
<title>9&#45;&gt;0</title>
<path fill="none" stroke="grey" stroke-width="2" d="M1220.72,-77.86C1211.25,-75.77 1201.33,-73.7 1192,-72 1066.97,-49.18 917.27,-31 848.68,-23.17"/>
<polygon fill="grey" stroke="grey" stroke-width="2" points="848.71,-19.65 838.38,-22 847.93,-26.61 848.71,-19.65"/>
</g>
<!-- 10 -->
<g id="node11" class="node">
<title>10</title>
<path fill="none" stroke="#59d856" stroke-width="2" d="M1432,-108C1432,-108 1364,-108 1364,-108 1358,-108 1352,-102 1352,-96 1352,-96 1352,-84 1352,-84 1352,-78 1358,-72 1364,-72 1364,-72 1432,-72 1432,-72 1438,-72 1444,-78 1444,-84 1444,-84 1444,-96 1444,-96 1444,-102 1438,-108 1432,-108"/>
<text text-anchor="middle" x="1398" y="-87.5" font-family="sans" font-size="10.00">evalmetacache</text>
</g>
<!-- 10&#45;&gt;0 -->
<g id="edge10" class="edge">
<title>10&#45;&gt;0</title>
<path fill="none" stroke="grey" stroke-width="2" d="M1351.95,-77.79C1342.11,-75.65 1331.74,-73.59 1322,-72 1145.78,-43.25 932.69,-27.06 848.15,-21.36"/>
<polygon fill="grey" stroke="grey" stroke-width="2" points="848.23,-17.86 838.02,-20.69 847.76,-24.84 848.23,-17.86"/>
</g>
<!-- 11 -->
<g id="node12" class="node">
<title>11</title>
<path fill="none" stroke="#56d8a2" stroke-width="2" d="M833,-108C833,-108 789,-108 789,-108 783,-108 777,-102 777,-96 777,-96 777,-84 777,-84 777,-78 783,-72 789,-72 789,-72 833,-72 833,-72 839,-72 845,-78 845,-84 845,-84 845,-96 845,-96 845,-102 839,-108 833,-108"/>
<text text-anchor="middle" x="811" y="-87.5" font-family="sans" font-size="10.00">evalganon</text>
</g>
<!-- 11&#45;&gt;0 -->
<g id="edge11" class="edge">
<title>11&#45;&gt;0</title>
<path fill="none" stroke="grey" stroke-width="2" d="M811,-71.7C811,-63.98 811,-54.71 811,-46.11"/>
<polygon fill="grey" stroke="grey" stroke-width="2" points="814.5,-46.1 811,-36.1 807.5,-46.1 814.5,-46.1"/>
</g>
<!-- 12 -->
<g id="node13" class="node">
<title>12</title>
<path fill="none" stroke="#d87d56" stroke-width="2" d="M960.5,-180C960.5,-180 885.5,-180 885.5,-180 879.5,-180 873.5,-174 873.5,-168 873.5,-168 873.5,-156 873.5,-156 873.5,-150 879.5,-144 885.5,-144 885.5,-144 960.5,-144 960.5,-144 966.5,-144 972.5,-150 972.5,-156 972.5,-156 972.5,-168 972.5,-168 972.5,-174 966.5,-180 960.5,-180"/>
<text text-anchor="middle" x="923" y="-159.5" font-family="sans" font-size="10.00">kraken2_identify</text>
</g>
<!-- 12&#45;&gt;1 -->
<g id="edge12" class="edge">
<title>12&#45;&gt;1</title>
<path fill="none" stroke="grey" stroke-width="2" d="M920.28,-143.7C919.07,-135.98 917.61,-126.71 916.26,-118.11"/>
<polygon fill="grey" stroke="grey" stroke-width="2" points="919.7,-117.44 914.69,-108.1 912.78,-118.53 919.7,-117.44"/>
</g>
<!-- 13 -->
<g id="node14" class="node">
<title>13</title>
<path fill="none" stroke="#97d856" stroke-width="2" d="M154,-180C154,-180 124,-180 124,-180 118,-180 112,-174 112,-168 112,-168 112,-156 112,-156 112,-150 118,-144 124,-144 124,-144 154,-144 154,-144 160,-144 166,-150 166,-156 166,-156 166,-168 166,-168 166,-174 160,-180 154,-180"/>
<text text-anchor="middle" x="139" y="-159.5" font-family="sans" font-size="10.00">identify</text>
</g>
<!-- 13&#45;&gt;2 -->
<g id="edge13" class="edge">
<title>13&#45;&gt;2</title>
<path fill="none" stroke="grey" stroke-width="2" d="M141.97,-143.7C143.29,-135.98 144.88,-126.71 146.35,-118.11"/>
<polygon fill="grey" stroke="grey" stroke-width="2" points="149.83,-118.55 148.07,-108.1 142.93,-117.37 149.83,-118.55"/>
</g>
<!-- 14 -->
<g id="node15" class="node">
<title>14</title>
<path fill="none" stroke="#d85656" stroke-width="2" d="M256,-180C256,-180 196,-180 196,-180 190,-180 184,-174 184,-168 184,-168 184,-156 184,-156 184,-150 190,-144 196,-144 196,-144 256,-144 256,-144 262,-144 268,-150 268,-156 268,-156 268,-168 268,-168 268,-174 262,-180 256,-180"/>
<text text-anchor="middle" x="226" y="-159.5" font-family="sans" font-size="10.00">shrinkIdentify</text>
</g>
<!-- 14&#45;&gt;3 -->
<g id="edge14" class="edge">
<title>14&#45;&gt;3</title>
<path fill="none" stroke="grey" stroke-width="2" d="M242.56,-143.7C250.68,-135.22 260.59,-124.86 269.47,-115.58"/>
<polygon fill="grey" stroke="grey" stroke-width="2" points="272.24,-117.75 276.63,-108.1 267.19,-112.91 272.24,-117.75"/>
</g>
<!-- 15 -->
<g id="node16" class="node">
<title>15</title>
<path fill="none" stroke="#56d8c9" stroke-width="2" d="M339.5,-180C339.5,-180 298.5,-180 298.5,-180 292.5,-180 286.5,-174 286.5,-168 286.5,-168 286.5,-156 286.5,-156 286.5,-150 292.5,-144 298.5,-144 298.5,-144 339.5,-144 339.5,-144 345.5,-144 351.5,-150 351.5,-156 351.5,-156 351.5,-168 351.5,-168 351.5,-174 345.5,-180 339.5,-180"/>
<text text-anchor="middle" x="319" y="-159.5" font-family="sans" font-size="10.00">identify_k</text>
</g>
<!-- 15&#45;&gt;4 -->
<g id="edge15" class="edge">
<title>15&#45;&gt;4</title>
<path fill="none" stroke="grey" stroke-width="2" d="M344.69,-143.88C358.29,-134.81 375.17,-123.55 389.86,-113.76"/>
<polygon fill="grey" stroke="grey" stroke-width="2" points="391.84,-116.65 398.22,-108.19 387.95,-110.82 391.84,-116.65"/>
</g>
<!-- 16 -->
<g id="node17" class="node">
<title>16</title>
<path fill="none" stroke="#56d8c1" stroke-width="2" d="M592,-180C592,-180 514,-180 514,-180 508,-180 502,-174 502,-168 502,-168 502,-156 502,-156 502,-150 508,-144 514,-144 514,-144 592,-144 592,-144 598,-144 604,-150 604,-156 604,-156 604,-168 604,-168 604,-174 598,-180 592,-180"/>
<text text-anchor="middle" x="553" y="-159.5" font-family="sans" font-size="10.00">identify_alphabet</text>
</g>
<!-- 16&#45;&gt;5 -->
<g id="edge16" class="edge">
<title>16&#45;&gt;5</title>
<path fill="none" stroke="grey" stroke-width="2" d="M553,-143.7C553,-135.98 553,-126.71 553,-118.11"/>
<polygon fill="grey" stroke="grey" stroke-width="2" points="556.5,-118.1 553,-108.1 549.5,-118.1 556.5,-118.1"/>
</g>
<!-- 17 -->
<g id="node18" class="node">
<title>17</title>
<path fill="none" stroke="#569ad8" stroke-width="2" d="M472,-180C472,-180 382,-180 382,-180 376,-180 370,-174 370,-168 370,-168 370,-156 370,-156 370,-150 376,-144 382,-144 382,-144 472,-144 472,-144 478,-144 484,-150 484,-156 484,-156 484,-168 484,-168 484,-174 478,-180 472,-180"/>
<text text-anchor="middle" x="427" y="-159.5" font-family="sans" font-size="10.00">identify_alphabet16</text>
</g>
<!-- 17&#45;&gt;5 -->
<g id="edge17" class="edge">
<title>17&#45;&gt;5</title>
<path fill="none" stroke="grey" stroke-width="2" d="M457.82,-143.88C474.45,-134.64 495.16,-123.13 513.02,-113.21"/>
<polygon fill="grey" stroke="grey" stroke-width="2" points="515.02,-116.11 522.06,-108.19 511.62,-109.99 515.02,-116.11"/>
</g>
<!-- 18 -->
<g id="node19" class="node">
<title>18</title>
<path fill="none" stroke="#56d873" stroke-width="2" d="M736,-180C736,-180 634,-180 634,-180 628,-180 622,-174 622,-168 622,-168 622,-156 622,-156 622,-150 628,-144 634,-144 634,-144 736,-144 736,-144 742,-144 748,-150 748,-156 748,-156 748,-168 748,-168 748,-174 742,-180 736,-180"/>
<text text-anchor="middle" x="685" y="-159.5" font-family="sans" font-size="10.00">clark_buildAndIdentify</text>
</g>
<!-- 18&#45;&gt;6 -->
<g id="edge18" class="edge">
<title>18&#45;&gt;6</title>
<path fill="none" stroke="grey" stroke-width="2" d="M690.19,-143.7C692.53,-135.9 695.35,-126.51 697.95,-117.83"/>
<polygon fill="grey" stroke="grey" stroke-width="2" points="701.35,-118.69 700.87,-108.1 694.64,-116.68 701.35,-118.69"/>
</g>
<!-- 19 -->
<g id="node20" class="node">
<title>19</title>
<path fill="none" stroke="#5663d8" stroke-width="2" d="M1071.5,-180C1071.5,-180 1002.5,-180 1002.5,-180 996.5,-180 990.5,-174 990.5,-168 990.5,-168 990.5,-156 990.5,-156 990.5,-150 996.5,-144 1002.5,-144 1002.5,-144 1071.5,-144 1071.5,-144 1077.5,-144 1083.5,-150 1083.5,-156 1083.5,-156 1083.5,-168 1083.5,-168 1083.5,-174 1077.5,-180 1071.5,-180"/>
<text text-anchor="middle" x="1037" y="-159.5" font-family="sans" font-size="10.00">kraken_identify</text>
</g>
<!-- 19&#45;&gt;7 -->
<g id="edge19" class="edge">
<title>19&#45;&gt;7</title>
<path fill="none" stroke="grey" stroke-width="2" d="M1033.04,-143.7C1031.28,-135.98 1029.16,-126.71 1027.2,-118.11"/>
<polygon fill="grey" stroke="grey" stroke-width="2" points="1030.55,-117.07 1024.91,-108.1 1023.73,-118.63 1030.55,-117.07"/>
</g>
<!-- 20 -->
<g id="node21" class="node">
<title>20</title>
<path fill="none" stroke="#56d89a" stroke-width="2" d="M1200,-180C1200,-180 1114,-180 1114,-180 1108,-180 1102,-174 1102,-168 1102,-168 1102,-156 1102,-156 1102,-150 1108,-144 1114,-144 1114,-144 1200,-144 1200,-144 1206,-144 1212,-150 1212,-156 1212,-156 1212,-168 1212,-168 1212,-174 1206,-180 1200,-180"/>
<text text-anchor="middle" x="1157" y="-159.5" font-family="sans" font-size="10.00">Centrifuge_identify</text>
</g>
<!-- 20&#45;&gt;8 -->
<g id="edge20" class="edge">
<title>20&#45;&gt;8</title>
<path fill="none" stroke="grey" stroke-width="2" d="M1152.3,-143.7C1150.19,-135.9 1147.64,-126.51 1145.28,-117.83"/>
<polygon fill="grey" stroke="grey" stroke-width="2" points="1148.64,-116.84 1142.64,-108.1 1141.88,-118.67 1148.64,-116.84"/>
</g>
<!-- 21 -->
<g id="node22" class="node">
<title>21</title>
<path fill="none" stroke="#afd856" stroke-width="2" d="M1332,-180C1332,-180 1242,-180 1242,-180 1236,-180 1230,-174 1230,-168 1230,-168 1230,-156 1230,-156 1230,-150 1236,-144 1242,-144 1242,-144 1332,-144 1332,-144 1338,-144 1344,-150 1344,-156 1344,-156 1344,-168 1344,-168 1344,-174 1338,-180 1332,-180"/>
<text text-anchor="middle" x="1287" y="-159.5" font-family="sans" font-size="10.00">krakenuniq_identify</text>
</g>
<!-- 21&#45;&gt;9 -->
<g id="edge21" class="edge">
<title>21&#45;&gt;9</title>
<path fill="none" stroke="grey" stroke-width="2" d="M1282.06,-143.7C1279.83,-135.9 1277.15,-126.51 1274.67,-117.83"/>
<polygon fill="grey" stroke="grey" stroke-width="2" points="1278,-116.76 1271.89,-108.1 1271.27,-118.68 1278,-116.76"/>
</g>
<!-- 22 -->
<g id="node23" class="node">
<title>22</title>
<path fill="none" stroke="#ced856" stroke-width="2" d="M1463.5,-180C1463.5,-180 1374.5,-180 1374.5,-180 1368.5,-180 1362.5,-174 1362.5,-168 1362.5,-168 1362.5,-156 1362.5,-156 1362.5,-150 1368.5,-144 1374.5,-144 1374.5,-144 1463.5,-144 1463.5,-144 1469.5,-144 1475.5,-150 1475.5,-156 1475.5,-156 1475.5,-168 1475.5,-168 1475.5,-174 1469.5,-180 1463.5,-180"/>
<text text-anchor="middle" x="1419" y="-159.5" font-family="sans" font-size="10.00">metacache_identify</text>
</g>
<!-- 22&#45;&gt;10 -->
<g id="edge22" class="edge">
<title>22&#45;&gt;10</title>
<path fill="none" stroke="grey" stroke-width="2" d="M1413.81,-143.7C1411.47,-135.9 1408.65,-126.51 1406.05,-117.83"/>
<polygon fill="grey" stroke="grey" stroke-width="2" points="1409.36,-116.68 1403.13,-108.1 1402.65,-118.69 1409.36,-116.68"/>
</g>
<!-- 23 -->
<g id="node24" class="node">
<title>23</title>
<path fill="none" stroke="#d86656" stroke-width="2" d="M843.5,-180C843.5,-180 778.5,-180 778.5,-180 772.5,-180 766.5,-174 766.5,-168 766.5,-168 766.5,-156 766.5,-156 766.5,-150 772.5,-144 778.5,-144 778.5,-144 843.5,-144 843.5,-144 849.5,-144 855.5,-150 855.5,-156 855.5,-156 855.5,-168 855.5,-168 855.5,-174 849.5,-180 843.5,-180"/>
<text text-anchor="middle" x="811" y="-159.5" font-family="sans" font-size="10.00">ganon_identify</text>
</g>
<!-- 23&#45;&gt;11 -->
<g id="edge23" class="edge">
<title>23&#45;&gt;11</title>
<path fill="none" stroke="grey" stroke-width="2" d="M811,-143.7C811,-135.98 811,-126.71 811,-118.11"/>
<polygon fill="grey" stroke="grey" stroke-width="2" points="814.5,-118.1 811,-108.1 807.5,-118.1 814.5,-118.1"/>
</g>
<!-- 24 -->
<g id="node25" class="node">
<title>24</title>
<path fill="none" stroke="#56d8d8" stroke-width="2" d="M980,-324C980,-324 918,-324 918,-324 912,-324 906,-318 906,-312 906,-312 906,-300 906,-300 906,-294 912,-288 918,-288 918,-288 980,-288 980,-288 986,-288 992,-294 992,-300 992,-300 992,-312 992,-312 992,-318 986,-324 980,-324"/>
<text text-anchor="middle" x="949" y="-303.5" font-family="sans" font-size="10.00">kraken2_build</text>
</g>
<!-- 24&#45;&gt;12 -->
<g id="edge24" class="edge">
<title>24&#45;&gt;12</title>
<path fill="none" stroke="grey" stroke-width="2" d="M945.86,-287.87C941.43,-263.67 933.29,-219.21 928.02,-190.39"/>
<polygon fill="grey" stroke="grey" stroke-width="2" points="931.39,-189.4 926.15,-180.19 924.51,-190.66 931.39,-189.4"/>
</g>
<!-- 25 -->
<g id="node26" class="node">
<title>25</title>
<path fill="none" stroke="#56d8b1" stroke-width="2" d="M831.5,-252C831.5,-252 714.5,-252 714.5,-252 708.5,-252 702.5,-246 702.5,-240 702.5,-240 702.5,-228 702.5,-228 702.5,-222 708.5,-216 714.5,-216 714.5,-216 831.5,-216 831.5,-216 837.5,-216 843.5,-222 843.5,-228 843.5,-228 843.5,-240 843.5,-240 843.5,-246 837.5,-252 831.5,-252"/>
<text text-anchor="middle" x="773" y="-231.5" font-family="sans" font-size="10.00">mutateAndGenerateFastq</text>
</g>
<!-- 25&#45;&gt;12 -->
<g id="edge25" class="edge">
<title>25&#45;&gt;12</title>
<path fill="none" stroke="grey" stroke-width="2" d="M809.69,-215.88C830.02,-206.39 855.47,-194.51 877.1,-184.42"/>
<polygon fill="grey" stroke="grey" stroke-width="2" points="878.84,-187.47 886.43,-180.07 875.88,-181.13 878.84,-187.47"/>
</g>
<!-- 25&#45;&gt;13 -->
<g id="edge27" class="edge">
<title>25&#45;&gt;13</title>
<path fill="none" stroke="grey" stroke-width="2" d="M702.28,-222.01C686.73,-219.82 670.33,-217.68 655,-216 445.56,-193.09 383.72,-233.34 175.82,-179.61"/>
<polygon fill="grey" stroke="grey" stroke-width="2" points="176.69,-176.22 166.13,-177.07 174.91,-182.99 176.69,-176.22"/>
</g>
<!-- 25&#45;&gt;14 -->
<g id="edge29" class="edge">
<title>25&#45;&gt;14</title>
<path fill="none" stroke="grey" stroke-width="2" d="M702.25,-222.24C686.7,-220.04 670.31,-217.83 655,-216 490.71,-196.35 443.93,-214.18 278.15,-179.96"/>
<polygon fill="grey" stroke="grey" stroke-width="2" points="278.6,-176.48 268.1,-177.85 277.17,-183.33 278.6,-176.48"/>
</g>
<!-- 25&#45;&gt;15 -->
<g id="edge31" class="edge">
<title>25&#45;&gt;15</title>
<path fill="none" stroke="grey" stroke-width="2" d="M702.21,-222.55C686.67,-220.33 670.28,-218.04 655,-216 527.7,-199.04 490.26,-212.3 361.57,-179.73"/>
<polygon fill="grey" stroke="grey" stroke-width="2" points="362.3,-176.3 351.74,-177.2 360.55,-183.08 362.3,-176.3"/>
</g>
<!-- 25&#45;&gt;16 -->
<g id="edge33" class="edge">
<title>25&#45;&gt;16</title>
<path fill="none" stroke="grey" stroke-width="2" d="M719.46,-215.97C687.51,-205.8 646.84,-192.86 613.7,-182.31"/>
<polygon fill="grey" stroke="grey" stroke-width="2" points="614.71,-178.96 604.12,-179.27 612.59,-185.63 614.71,-178.96"/>
</g>
<!-- 25&#45;&gt;17 -->
<g id="edge35" class="edge">
<title>25&#45;&gt;17</title>
<path fill="none" stroke="grey" stroke-width="2" d="M702.26,-220.92C647.82,-211.32 570.51,-197.04 493.99,-180.15"/>
<polygon fill="grey" stroke="grey" stroke-width="2" points="494.7,-176.73 484.18,-177.97 493.18,-183.56 494.7,-176.73"/>
</g>
<!-- 25&#45;&gt;18 -->
<g id="edge37" class="edge">
<title>25&#45;&gt;18</title>
<path fill="none" stroke="grey" stroke-width="2" d="M751.25,-215.7C740.16,-206.88 726.53,-196.03 714.51,-186.47"/>
<polygon fill="grey" stroke="grey" stroke-width="2" points="716.51,-183.59 706.5,-180.1 712.15,-189.07 716.51,-183.59"/>
</g>
<!-- 25&#45;&gt;19 -->
<g id="edge40" class="edge">
<title>25&#45;&gt;19</title>
<path fill="none" stroke="grey" stroke-width="2" d="M843.86,-215.99C881.98,-206.62 930,-194.45 980.46,-180.38"/>
<polygon fill="grey" stroke="grey" stroke-width="2" points="981.56,-183.7 990.24,-177.63 979.67,-176.96 981.56,-183.7"/>
</g>
<!-- 25&#45;&gt;20 -->
<g id="edge42" class="edge">
<title>25&#45;&gt;20</title>
<path fill="none" stroke="grey" stroke-width="2" d="M843.59,-223.29C906.39,-214.19 1000.88,-199.41 1091.98,-180.11"/>
<polygon fill="grey" stroke="grey" stroke-width="2" points="1092.88,-183.5 1101.92,-177.99 1091.41,-176.66 1092.88,-183.5"/>
</g>
<!-- 25&#45;&gt;21 -->
<g id="edge44" class="edge">
<title>25&#45;&gt;21</title>
<path fill="none" stroke="grey" stroke-width="2" d="M843.67,-227.59C930.25,-220.31 1081.48,-205.45 1219.92,-180.06"/>
<polygon fill="grey" stroke="grey" stroke-width="2" points="1220.67,-183.48 1229.87,-178.22 1219.4,-176.6 1220.67,-183.48"/>
</g>
<!-- 25&#45;&gt;22 -->
<g id="edge46" class="edge">
<title>25&#45;&gt;22</title>
<path fill="none" stroke="grey" stroke-width="2" d="M843.56,-230.22C951.31,-225.16 1163.31,-212.03 1352.13,-179.98"/>
<polygon fill="grey" stroke="grey" stroke-width="2" points="1352.98,-183.38 1362.24,-178.24 1351.8,-176.48 1352.98,-183.38"/>
</g>
<!-- 25&#45;&gt;23 -->
<g id="edge48" class="edge">
<title>25&#45;&gt;23</title>
<path fill="none" stroke="grey" stroke-width="2" d="M782.39,-215.7C786.76,-207.64 792.06,-197.89 796.9,-188.98"/>
<polygon fill="grey" stroke="grey" stroke-width="2" points="800.02,-190.56 801.71,-180.1 793.87,-187.22 800.02,-190.56"/>
</g>
<!-- 26 -->
<g id="node27" class="node">
<title>26</title>
<path fill="none" stroke="#80d856" stroke-width="2" d="M102,-252C102,-252 12,-252 12,-252 6,-252 0,-246 0,-240 0,-240 0,-228 0,-228 0,-222 6,-216 12,-216 12,-216 102,-216 102,-216 108,-216 114,-222 114,-228 114,-228 114,-240 114,-240 114,-246 108,-252 102,-252"/>
<text text-anchor="middle" x="57" y="-231.5" font-family="sans" font-size="10.00">createIndex_normal</text>
</g>
<!-- 26&#45;&gt;13 -->
<g id="edge26" class="edge">
<title>26&#45;&gt;13</title>
<path fill="none" stroke="grey" stroke-width="2" d="M77.27,-215.7C87.5,-206.97 100.06,-196.24 111.18,-186.75"/>
<polygon fill="grey" stroke="grey" stroke-width="2" points="113.63,-189.26 118.96,-180.1 109.09,-183.94 113.63,-189.26"/>
</g>
<!-- 27 -->
<g id="node28" class="node">
<title>27</title>
<path fill="none" stroke="#56a2d8" stroke-width="2" d="M226,-252C226,-252 144,-252 144,-252 138,-252 132,-246 132,-240 132,-240 132,-228 132,-228 132,-222 138,-216 144,-216 144,-216 226,-216 226,-216 232,-216 238,-222 238,-228 238,-228 238,-240 238,-240 238,-246 232,-252 226,-252"/>
<text text-anchor="middle" x="185" y="-231.5" font-family="sans" font-size="10.00">shrinkCreateIndex</text>
</g>
<!-- 27&#45;&gt;14 -->
<g id="edge28" class="edge">
<title>27&#45;&gt;14</title>
<path fill="none" stroke="grey" stroke-width="2" d="M195.13,-215.7C199.85,-207.64 205.56,-197.89 210.78,-188.98"/>
<polygon fill="grey" stroke="grey" stroke-width="2" points="213.95,-190.5 215.98,-180.1 207.91,-186.96 213.95,-190.5"/>
</g>
<!-- 28 -->
<g id="node29" class="node">
<title>28</title>
<path fill="none" stroke="#88d856" stroke-width="2" d="M342,-252C342,-252 268,-252 268,-252 262,-252 256,-246 256,-240 256,-240 256,-228 256,-228 256,-222 262,-216 268,-216 268,-216 342,-216 342,-216 348,-216 354,-222 354,-228 354,-228 354,-240 354,-240 354,-246 348,-252 342,-252"/>
<text text-anchor="middle" x="305" y="-231.5" font-family="sans" font-size="10.00">createIndex_128</text>
</g>
<!-- 28&#45;&gt;15 -->
<g id="edge30" class="edge">
<title>28&#45;&gt;15</title>
<path fill="none" stroke="grey" stroke-width="2" d="M308.46,-215.7C310,-207.98 311.86,-198.71 313.58,-190.11"/>
<polygon fill="grey" stroke="grey" stroke-width="2" points="317.05,-190.6 315.58,-180.1 310.19,-189.22 317.05,-190.6"/>
</g>
<!-- 29 -->
<g id="node30" class="node">
<title>29</title>
<path fill="none" stroke="#a7d856" stroke-width="2" d="M634,-252C634,-252 536,-252 536,-252 530,-252 524,-246 524,-240 524,-240 524,-228 524,-228 524,-222 530,-216 536,-216 536,-216 634,-216 634,-216 640,-216 646,-222 646,-228 646,-228 646,-240 646,-240 646,-246 640,-252 634,-252"/>
<text text-anchor="middle" x="585" y="-231.5" font-family="sans" font-size="10.00">createIndex_alphabet</text>
</g>
<!-- 29&#45;&gt;16 -->
<g id="edge32" class="edge">
<title>29&#45;&gt;16</title>
<path fill="none" stroke="grey" stroke-width="2" d="M577.09,-215.7C573.45,-207.73 569.05,-198.1 565.01,-189.26"/>
<polygon fill="grey" stroke="grey" stroke-width="2" points="568.16,-187.74 560.82,-180.1 561.79,-190.65 568.16,-187.74"/>
</g>
<!-- 30 -->
<g id="node31" class="node">
<title>30</title>
<path fill="none" stroke="#d6d856" stroke-width="2" d="M494,-252C494,-252 384,-252 384,-252 378,-252 372,-246 372,-240 372,-240 372,-228 372,-228 372,-222 378,-216 384,-216 384,-216 494,-216 494,-216 500,-216 506,-222 506,-228 506,-228 506,-240 506,-240 506,-246 500,-252 494,-252"/>
<text text-anchor="middle" x="439" y="-231.5" font-family="sans" font-size="10.00">createIndex_alphabet16</text>
</g>
<!-- 30&#45;&gt;17 -->
<g id="edge34" class="edge">
<title>30&#45;&gt;17</title>
<path fill="none" stroke="grey" stroke-width="2" d="M436.03,-215.7C434.71,-207.98 433.12,-198.71 431.65,-190.11"/>
<polygon fill="grey" stroke="grey" stroke-width="2" points="435.07,-189.37 429.93,-180.1 428.17,-190.55 435.07,-189.37"/>
</g>
<!-- 31 -->
<g id="node32" class="node">
<title>31</title>
<path fill="none" stroke="#568ad8" stroke-width="2" d="M831.5,-396C831.5,-396 750.5,-396 750.5,-396 744.5,-396 738.5,-390 738.5,-384 738.5,-384 738.5,-372 738.5,-372 738.5,-366 744.5,-360 750.5,-360 750.5,-360 831.5,-360 831.5,-360 837.5,-360 843.5,-366 843.5,-372 843.5,-372 843.5,-384 843.5,-384 843.5,-390 837.5,-396 831.5,-396"/>
<text text-anchor="middle" x="791" y="-375.5" font-family="sans" font-size="10.00">downloadGenome</text>
</g>
<!-- 31&#45;&gt;18 -->
<g id="edge36" class="edge">
<title>31&#45;&gt;18</title>
<path fill="none" stroke="grey" stroke-width="2" d="M738.28,-370.14C709.7,-363.44 676.7,-350.19 659,-324 644.52,-302.58 663.93,-229.8 676.24,-189.83"/>
<polygon fill="grey" stroke="grey" stroke-width="2" points="679.61,-190.78 679.27,-180.19 672.94,-188.69 679.61,-190.78"/>
</g>
<!-- 31&#45;&gt;24 -->
<g id="edge49" class="edge">
<title>31&#45;&gt;24</title>
<path fill="none" stroke="grey" stroke-width="2" d="M829.65,-359.88C851.25,-350.31 878.35,-338.3 901.27,-328.15"/>
<polygon fill="grey" stroke="grey" stroke-width="2" points="902.75,-331.32 910.47,-324.07 899.91,-324.92 902.75,-331.32"/>
</g>
<!-- 31&#45;&gt;26 -->
<g id="edge52" class="edge">
<title>31&#45;&gt;26</title>
<path fill="none" stroke="grey" stroke-width="2" d="M738.26,-375.05C649.34,-370.9 464.38,-358.56 312,-324 238.54,-307.34 156.86,-276.54 106.2,-255.91"/>
<polygon fill="grey" stroke="grey" stroke-width="2" points="107.39,-252.61 96.81,-252.05 104.73,-259.09 107.39,-252.61"/>
</g>
<!-- 31&#45;&gt;27 -->
<g id="edge53" class="edge">
<title>31&#45;&gt;27</title>
<path fill="none" stroke="grey" stroke-width="2" d="M738.21,-373.09C665.78,-366.89 531.93,-352.5 421,-324 353.55,-306.67 278.82,-276.52 231.89,-256.17"/>
<polygon fill="grey" stroke="grey" stroke-width="2" points="233.16,-252.91 222.6,-252.11 230.36,-259.32 233.16,-252.91"/>
</g>
<!-- 31&#45;&gt;28 -->
<g id="edge54" class="edge">
<title>31&#45;&gt;28</title>
<path fill="none" stroke="grey" stroke-width="2" d="M738.5,-369.83C683.54,-361.6 595.1,-346.3 521,-324 459.98,-305.64 392.5,-276.29 349.47,-256.36"/>
<polygon fill="grey" stroke="grey" stroke-width="2" points="350.68,-253.06 340.14,-252.01 347.73,-259.41 350.68,-253.06"/>
</g>
<!-- 31&#45;&gt;29 -->
<g id="edge55" class="edge">
<title>31&#45;&gt;29</title>
<path fill="none" stroke="grey" stroke-width="2" d="M738.34,-371.22C702.93,-364.88 657.19,-351.63 626,-324 607.67,-307.77 597,-281.66 591.16,-261.91"/>
<polygon fill="grey" stroke="grey" stroke-width="2" points="594.53,-260.98 588.53,-252.24 587.78,-262.81 594.53,-260.98"/>
</g>
<!-- 31&#45;&gt;30 -->
<g id="edge56" class="edge">
<title>31&#45;&gt;30</title>
<path fill="none" stroke="grey" stroke-width="2" d="M738.38,-366.32C698.69,-357.39 643.34,-343.04 597,-324 552.34,-305.65 504.49,-277.35 473.29,-257.6"/>
<polygon fill="grey" stroke="grey" stroke-width="2" points="474.87,-254.45 464.56,-252.02 471.1,-260.35 474.87,-254.45"/>
</g>
<!-- 33 -->
<g id="node34" class="node">
<title>33</title>
<path fill="none" stroke="#56d863" stroke-width="2" d="M1078,-324C1078,-324 1022,-324 1022,-324 1016,-324 1010,-318 1010,-312 1010,-312 1010,-300 1010,-300 1010,-294 1016,-288 1022,-288 1022,-288 1078,-288 1078,-288 1084,-288 1090,-294 1090,-300 1090,-300 1090,-312 1090,-312 1090,-318 1084,-324 1078,-324"/>
<text text-anchor="middle" x="1050" y="-303.5" font-family="sans" font-size="10.00">kraken_build</text>
</g>
<!-- 31&#45;&gt;33 -->
<g id="edge59" class="edge">
<title>31&#45;&gt;33</title>
<path fill="none" stroke="grey" stroke-width="2" d="M843.56,-365.07C883.99,-355.59 941.42,-341.48 1000.16,-324.13"/>
<polygon fill="grey" stroke="grey" stroke-width="2" points="1001.4,-327.41 1009.98,-321.2 999.4,-320.7 1001.4,-327.41"/>
</g>
<!-- 34 -->
<g id="node35" class="node">
<title>34</title>
<path fill="none" stroke="#5673d8" stroke-width="2" d="M1193.5,-324C1193.5,-324 1120.5,-324 1120.5,-324 1114.5,-324 1108.5,-318 1108.5,-312 1108.5,-312 1108.5,-300 1108.5,-300 1108.5,-294 1114.5,-288 1120.5,-288 1120.5,-288 1193.5,-288 1193.5,-288 1199.5,-288 1205.5,-294 1205.5,-300 1205.5,-300 1205.5,-312 1205.5,-312 1205.5,-318 1199.5,-324 1193.5,-324"/>
<text text-anchor="middle" x="1157" y="-303.5" font-family="sans" font-size="10.00">Centrifuge_build</text>
</g>
<!-- 31&#45;&gt;34 -->
<g id="edge61" class="edge">
<title>31&#45;&gt;34</title>
<path fill="none" stroke="grey" stroke-width="2" d="M843.68,-369.81C903.26,-361.27 1003.28,-345.66 1098.57,-323.95"/>
<polygon fill="grey" stroke="grey" stroke-width="2" points="1099.41,-327.35 1108.37,-321.69 1097.84,-320.53 1099.41,-327.35"/>
</g>
<!-- 35 -->
<g id="node36" class="node">
<title>35</title>
<path fill="none" stroke="#61d856" stroke-width="2" d="M1312.5,-324C1312.5,-324 1235.5,-324 1235.5,-324 1229.5,-324 1223.5,-318 1223.5,-312 1223.5,-312 1223.5,-300 1223.5,-300 1223.5,-294 1229.5,-288 1235.5,-288 1235.5,-288 1312.5,-288 1312.5,-288 1318.5,-288 1324.5,-294 1324.5,-300 1324.5,-300 1324.5,-312 1324.5,-312 1324.5,-318 1318.5,-324 1312.5,-324"/>
<text text-anchor="middle" x="1274" y="-303.5" font-family="sans" font-size="10.00">krakenuniq_build</text>
</g>
<!-- 31&#45;&gt;35 -->
<g id="edge63" class="edge">
<title>31&#45;&gt;35</title>
<path fill="none" stroke="grey" stroke-width="2" d="M843.65,-373.08C922.35,-366.64 1075.36,-351.86 1213.37,-324.18"/>
<polygon fill="grey" stroke="grey" stroke-width="2" points="1214.17,-327.58 1223.28,-322.16 1212.78,-320.72 1214.17,-327.58"/>
</g>
<!-- 36 -->
<g id="node37" class="node">
<title>36</title>
<path fill="none" stroke="#70d856" stroke-width="2" d="M1431,-324C1431,-324 1355,-324 1355,-324 1349,-324 1343,-318 1343,-312 1343,-312 1343,-300 1343,-300 1343,-294 1349,-288 1355,-288 1355,-288 1431,-288 1431,-288 1437,-288 1443,-294 1443,-300 1443,-300 1443,-312 1443,-312 1443,-318 1437,-324 1431,-324"/>
<text text-anchor="middle" x="1393" y="-303.5" font-family="sans" font-size="10.00">metacache_build</text>
</g>
<!-- 31&#45;&gt;36 -->
<g id="edge65" class="edge">
<title>31&#45;&gt;36</title>
<path fill="none" stroke="grey" stroke-width="2" d="M843.79,-373.09C957.51,-364.46 1223.53,-343.2 1332.86,-323.96"/>
<polygon fill="grey" stroke="grey" stroke-width="2" points="1333.74,-327.35 1342.94,-322.1 1332.47,-320.47 1333.74,-327.35"/>
</g>
<!-- 37 -->
<g id="node38" class="node">
<title>37</title>
<path fill="none" stroke="#56c9d8" stroke-width="2" d="M876,-324C876,-324 824,-324 824,-324 818,-324 812,-318 812,-312 812,-312 812,-300 812,-300 812,-294 818,-288 824,-288 824,-288 876,-288 876,-288 882,-288 888,-294 888,-300 888,-300 888,-312 888,-312 888,-318 882,-324 876,-324"/>
<text text-anchor="middle" x="850" y="-303.5" font-family="sans" font-size="10.00">ganon_build</text>
</g>
<!-- 31&#45;&gt;37 -->
<g id="edge67" class="edge">
<title>31&#45;&gt;37</title>
<path fill="none" stroke="grey" stroke-width="2" d="M805.58,-359.7C812.66,-351.3 821.28,-341.07 829.05,-331.86"/>
<polygon fill="grey" stroke="grey" stroke-width="2" points="831.81,-334.01 835.58,-324.1 826.46,-329.49 831.81,-334.01"/>
</g>
<!-- 38 -->
<g id="node39" class="node">
<title>38</title>
<path fill="none" stroke="#bed856" stroke-width="2" d="M782,-324C782,-324 680,-324 680,-324 674,-324 668,-318 668,-312 668,-312 668,-300 668,-300 668,-294 674,-288 680,-288 680,-288 782,-288 782,-288 788,-288 794,-294 794,-300 794,-300 794,-312 794,-312 794,-318 788,-324 782,-324"/>
<text text-anchor="middle" x="731" y="-303.5" font-family="sans" font-size="10.00">catEverythingTogether</text>
</g>
<!-- 31&#45;&gt;38 -->
<g id="edge69" class="edge">
<title>31&#45;&gt;38</title>
<path fill="none" stroke="grey" stroke-width="2" d="M776.17,-359.7C768.98,-351.3 760.2,-341.07 752.31,-331.86"/>
<polygon fill="grey" stroke="grey" stroke-width="2" points="754.83,-329.42 745.66,-324.1 749.51,-333.97 754.83,-329.42"/>
</g>
<!-- 32 -->
<g id="node33" class="node">
<title>32</title>
<path fill="none" stroke="#567bd8" stroke-width="2" d="M1143,-396C1143,-396 1063,-396 1063,-396 1057,-396 1051,-390 1051,-384 1051,-384 1051,-372 1051,-372 1051,-366 1057,-360 1063,-360 1063,-360 1143,-360 1143,-360 1149,-360 1155,-366 1155,-372 1155,-372 1155,-384 1155,-384 1155,-390 1149,-396 1143,-396"/>
<text text-anchor="middle" x="1103" y="-375.5" font-family="sans" font-size="10.00">downloadTaxData</text>
</g>
<!-- 32&#45;&gt;18 -->
<g id="edge38" class="edge">
<title>32&#45;&gt;18</title>
<path fill="none" stroke="grey" stroke-width="2" d="M1155.14,-377.02C1242.92,-375.83 1414.35,-367.8 1452,-324 1462.43,-311.87 1462.41,-300.15 1452,-288 1352.46,-171.77 928.25,-208.21 758.11,-179.81"/>
<polygon fill="grey" stroke="grey" stroke-width="2" points="758.71,-176.36 748.25,-178.03 757.47,-183.25 758.71,-176.36"/>
</g>
<!-- 32&#45;&gt;24 -->
<g id="edge50" class="edge">
<title>32&#45;&gt;24</title>
<path fill="none" stroke="grey" stroke-width="2" d="M1065.33,-359.88C1044.37,-350.35 1018.1,-338.41 995.82,-328.28"/>
<polygon fill="grey" stroke="grey" stroke-width="2" points="997.1,-325.02 986.55,-324.07 994.21,-331.39 997.1,-325.02"/>
</g>
<!-- 32&#45;&gt;33 -->
<g id="edge60" class="edge">
<title>32&#45;&gt;33</title>
<path fill="none" stroke="grey" stroke-width="2" d="M1089.9,-359.7C1083.61,-351.39 1075.95,-341.28 1069.04,-332.14"/>
<polygon fill="grey" stroke="grey" stroke-width="2" points="1071.78,-329.96 1062.95,-324.1 1066.2,-334.19 1071.78,-329.96"/>
</g>
<!-- 32&#45;&gt;34 -->
<g id="edge62" class="edge">
<title>32&#45;&gt;34</title>
<path fill="none" stroke="grey" stroke-width="2" d="M1116.35,-359.7C1122.76,-351.39 1130.56,-341.28 1137.61,-332.14"/>
<polygon fill="grey" stroke="grey" stroke-width="2" points="1140.47,-334.16 1143.81,-324.1 1134.93,-329.88 1140.47,-334.16"/>
</g>
<!-- 32&#45;&gt;35 -->
<g id="edge64" class="edge">
<title>32&#45;&gt;35</title>
<path fill="none" stroke="grey" stroke-width="2" d="M1144.83,-359.88C1168.42,-350.22 1198.06,-338.09 1223,-327.88"/>
<polygon fill="grey" stroke="grey" stroke-width="2" points="1224.38,-331.1 1232.3,-324.07 1221.72,-324.62 1224.38,-331.1"/>
</g>
<!-- 32&#45;&gt;36 -->
<g id="edge66" class="edge">
<title>32&#45;&gt;36</title>
<path fill="none" stroke="grey" stroke-width="2" d="M1155.03,-365.92C1199.78,-356.19 1266.26,-341.29 1332.99,-324.19"/>
<polygon fill="grey" stroke="grey" stroke-width="2" points="1334.03,-327.54 1342.84,-321.66 1332.28,-320.76 1334.03,-327.54"/>
</g>
<!-- 32&#45;&gt;37 -->
<g id="edge68" class="edge">
<title>32&#45;&gt;37</title>
<path fill="none" stroke="grey" stroke-width="2" d="M1050.98,-365.07C1011.3,-355.64 955.17,-341.59 897.72,-324.09"/>
<polygon fill="grey" stroke="grey" stroke-width="2" points="898.7,-320.73 888.12,-321.13 896.65,-327.42 898.7,-320.73"/>
</g>
<!-- 33&#45;&gt;19 -->
<g id="edge39" class="edge">
<title>33&#45;&gt;19</title>
<path fill="none" stroke="grey" stroke-width="2" d="M1048.43,-287.87C1046.22,-263.67 1042.15,-219.21 1039.51,-190.39"/>
<polygon fill="grey" stroke="grey" stroke-width="2" points="1042.97,-189.83 1038.57,-180.19 1036,-190.47 1042.97,-189.83"/>
</g>
<!-- 34&#45;&gt;20 -->
<g id="edge41" class="edge">
<title>34&#45;&gt;20</title>
<path fill="none" stroke="grey" stroke-width="2" d="M1157,-287.87C1157,-263.67 1157,-219.21 1157,-190.39"/>
<polygon fill="grey" stroke="grey" stroke-width="2" points="1160.5,-190.19 1157,-180.19 1153.5,-190.19 1160.5,-190.19"/>
</g>
<!-- 35&#45;&gt;21 -->
<g id="edge43" class="edge">
<title>35&#45;&gt;21</title>
<path fill="none" stroke="grey" stroke-width="2" d="M1275.57,-287.87C1277.78,-263.67 1281.85,-219.21 1284.49,-190.39"/>
<polygon fill="grey" stroke="grey" stroke-width="2" points="1288,-190.47 1285.43,-180.19 1281.03,-189.83 1288,-190.47"/>
</g>
<!-- 36&#45;&gt;22 -->
<g id="edge45" class="edge">
<title>36&#45;&gt;22</title>
<path fill="none" stroke="grey" stroke-width="2" d="M1396.14,-287.87C1400.57,-263.67 1408.71,-219.21 1413.98,-190.39"/>
<polygon fill="grey" stroke="grey" stroke-width="2" points="1417.49,-190.66 1415.85,-180.19 1410.61,-189.4 1417.49,-190.66"/>
</g>
<!-- 37&#45;&gt;23 -->
<g id="edge47" class="edge">
<title>37&#45;&gt;23</title>
<path fill="none" stroke="grey" stroke-width="2" d="M854.18,-287.72C857.8,-269.37 861.29,-239.8 853,-216 849.47,-205.86 843.09,-196.19 836.36,-187.96"/>
<polygon fill="grey" stroke="grey" stroke-width="2" points="838.83,-185.46 829.6,-180.24 833.56,-190.07 838.83,-185.46"/>
</g>
<!-- 38&#45;&gt;25 -->
<g id="edge51" class="edge">
<title>38&#45;&gt;25</title>
<path fill="none" stroke="grey" stroke-width="2" d="M741.38,-287.7C746.26,-279.56 752.19,-269.69 757.58,-260.7"/>
<polygon fill="grey" stroke="grey" stroke-width="2" points="760.59,-262.48 762.74,-252.1 754.59,-258.88 760.59,-262.48"/>
</g>
<!-- 39 -->
<g id="node40" class="node">
<title>39</title>
<path fill="none" stroke="#d8a456" stroke-width="2" d="M926.5,-468C926.5,-468 855.5,-468 855.5,-468 849.5,-468 843.5,-462 843.5,-456 843.5,-456 843.5,-444 843.5,-444 843.5,-438 849.5,-432 855.5,-432 855.5,-432 926.5,-432 926.5,-432 932.5,-432 938.5,-438 938.5,-444 938.5,-444 938.5,-456 938.5,-456 938.5,-462 932.5,-468 926.5,-468"/>
<text text-anchor="middle" x="891" y="-447.5" font-family="sans" font-size="10.00">createAllFolders</text>
</g>
<!-- 39&#45;&gt;31 -->
<g id="edge57" class="edge">
<title>39&#45;&gt;31</title>
<path fill="none" stroke="grey" stroke-width="2" d="M866.54,-431.88C853.7,-422.89 837.8,-411.76 823.91,-402.03"/>
<polygon fill="grey" stroke="grey" stroke-width="2" points="825.76,-399.06 815.56,-396.19 821.74,-404.79 825.76,-399.06"/>
</g>
<!-- 39&#45;&gt;32 -->
<g id="edge58" class="edge">
<title>39&#45;&gt;32</title>
<path fill="none" stroke="grey" stroke-width="2" d="M938.58,-433.29C969.13,-423.2 1009.11,-410 1041.99,-399.14"/>
<polygon fill="grey" stroke="grey" stroke-width="2" points="1043.11,-402.46 1051.5,-396 1040.91,-395.82 1043.11,-402.46"/>
</g>
</g>
</svg>
